{
  "accessors": [
    {
      "bufferView": 2,
      "componentType": 5126,
      "count": 1134,
      "max": [
        0.2919403314590454,
        0.0756198987364769,
        1.0985515117645264
      ],
      "min": [
        -0.14550603926181793,
        -1.2477779388427734,
        -0.6816483736038208
      ],
      "type": "VEC3"
    },
    {
      "bufferView": 2,
      "byteOffset": 13608,
      "componentType": 5126,
      "count": 1134,
      "max": [
        1.0,
        1.0,
        1.0
      ],
      "min": [
        -1.0,
        -1.0,
        -1.0
      ],
      "type": "VEC3"
    },
    {
      "bufferView": 1,
      "componentType": 5126,
      "count": 1134,
      "max": [
        0.8667757511138916,
        1.0
      ],
      "min": [
        0.0,
        0.0
      ],
      "type": "VEC2"
    },
    {
      "bufferView": 0,
      "componentType": 5125,
      "count": 3384,
      "type": "SCALAR"
    },
    {
      "bufferView": 2,
      "byteOffset": 27216,
      "componentType": 5126,
      "count": 2808,
      "max": [
        0.28493309020996094,
        0.36764010787010193,
        1.09178626537323
      ],
      "min": [
        -0.14298519492149353,
        -1.3191434144973755,
        -0.6738454699516296
      ],
      "type": "VEC3"
    },
    {
      "bufferView": 2,
      "byteOffset": 60912,
      "componentType": 5126,
      "count": 2808,
      "max": [
        1.0,
        0.8141025304794312,
        1.0
      ],
      "min": [
        0.0,
        -0.8141025304794312,
        -1.0
      ],
      "type": "VEC3"
    },
    {
      "bufferView": 1,
      "byteOffset": 9072,
      "componentType": 5126,
      "count": 2808,
      "max": [
        0.6293162107467651,
        0.8468532562255859
      ],
      "min": [
        0.367037296295166,
        0.75193190574646
      ],
      "type": "VEC2"
    },
    {
      "bufferView": 0,
      "byteOffset": 13536,
      "componentType": 5125,
      "count": 4212,
      "type": "SCALAR"
    },
    {
      "bufferView": 2,
      "byteOffset": 94608,
      "componentType": 5126,
      "count": 214,
      "max": [
        0.4305402338504791,
        0.4554523825645447,
        1.7694082260131836
      ],
      "min": [
        -0.19994845986366272,
        -1.422229290008545,
        -1.1443586349487305
      ],
      "type": "VEC3"
    },
    {
      "bufferView": 2,
      "byteOffset": 97176,
      "componentType": 5126,
      "count": 214,
      "max": [
        1.0,
        1.0,
        1.0
      ],
      "min": [
        -1.0,
        -1.0,
        -1.0
      ],
      "type": "VEC3"
    },
    {
      "bufferView": 1,
      "byteOffset": 31536,
      "componentType": 5126,
      "count": 214,
      "max": [
        0.8668105602264404,
        0.6320052146911621
      ],
      "min": [
        0.13103681802749634,
        0.09595438838005066
      ],
      "type": "VEC2"
    },
    {
      "bufferView": 0,
      "byteOffset": 30384,
      "componentType": 5125,
      "count": 336,
      "type": "SCALAR"
    },
    {
      "bufferView": 2,
      "byteOffset": 99744,
      "componentType": 5126,
      "count": 20,
      "max": [
        0.455030620098114,
        0.13501590490341187,
        1.756767988204956
      ],
      "min": [
        -0.2244388461112976,
        -1.112554907798767,
        1.34153151512146
      ],
      "type": "VEC3"
    },
    {
      "bufferView": 2,
      "byteOffset": 99984,
      "componentType": 5126,
      "count": 20,
      "max": [
        0.0,
        0.04953732341527939,
        1.0
      ],
      "min": [
        -1.0,
        -3.854504271316728e-09,
        0.0
      ],
      "type": "VEC3"
    },
    {
      "bufferView": 1,
      "byteOffset": 33248,
      "componentType": 5126,
      "count": 20,
      "max": [
        0.8979184627532959,
        0.3516724109649658
      ],
      "min": [
        0.08524289727210999,
        0.07481183111667633
      ],
      "type": "VEC2"
    },
    {
      "bufferView": 0,
      "byteOffset": 31728,
      "componentType": 5125,
      "count": 36,
      "type": "SCALAR"
    },
    {
      "bufferView": 2,
      "byteOffset": 100224,
      "componentType": 5126,
      "count": 1416,
      "max": [
        0.2893158197402954,
        0.1481611430644989,
        1.0997371673583984
      ],
      "min": [
        -0.14813102781772614,
        -1.175236701965332,
        -0.6804627180099487
      ],
      "type": "VEC3"
    },
    {
      "bufferView": 2,
      "byteOffset": 117216,
      "componentType": 5126,
      "count": 1416,
      "max": [
        1.0,
        1.0,
        1.0
      ],
      "min": [
        -1.0,
        -1.0,
        -1.0
      ],
      "type": "VEC3"
    },
    {
      "bufferView": 1,
      "byteOffset": 33408,
      "componentType": 5126,
      "count": 1416,
      "max": [
        0.9996188879013062,
        1.0008236169815063
      ],
      "min": [
        0.0033449616748839617,
        -0.0005746781826019287
      ],
      "type": "VEC2"
    },
    {
      "bufferView": 0,
      "byteOffset": 31872,
      "componentType": 5125,
      "count": 3384,
      "type": "SCALAR"
    },
    {
      "bufferView": 2,
      "byteOffset": 134208,
      "componentType": 5126,
      "count": 798,
      "max": [
        0.291939914226532,
        -0.10322694480419159,
        1.08463454246521
      ],
      "min": [
        -0.1455060839653015,
        -1.3276095390319824,
        -0.17388632893562317
      ],
      "type": "VEC3"
    },
    {
      "bufferView": 2,
      "byteOffset": 143784,
      "componentType": 5126,
      "count": 798,
      "max": [
        1.0,
        0.870681643486023,
        0.8712655901908875
      ],
      "min": [
        -1.0,
        -0.870681643486023,
        -0.8712655901908875
      ],
      "type": "VEC3"
    },
    {
      "bufferView": 1,
      "byteOffset": 44736,
      "componentType": 5126,
      "count": 798,
      "max": [
        0.9936659932136536,
        0.9987474083900452
      ],
      "min": [
        0.014622560702264309,
        0.0013635533396154642
      ],
      "type": "VEC2"
    },
    {
      "bufferView": 0,
      "byteOffset": 45408,
      "componentType": 5125,
      "count": 1692,
      "type": "SCALAR"
    },
    {
      "bufferView": 2,
      "byteOffset": 153360,
      "componentType": 5126,
      "count": 1548,
      "max": [
        0.2927762269973755,
        0.0006796941161155701,
        1.0984034538269043
      ],
      "min": [
        -0.14467014372348785,
        -1.3227181434631348,
        -0.6817964315414429
      ],
      "type": "VEC3"
    },
    {
      "bufferView": 2,
      "byteOffset": 171936,
      "componentType": 5126,
      "count": 1548,
      "max": [
        1.0,
        1.0,
        1.0
      ],
      "min": [
        -1.0,
        -1.0,
        -1.0
      ],
      "type": "VEC3"
    },
    {
      "bufferView": 1,
      "byteOffset": 51120,
      "componentType": 5126,
      "count": 1548,
      "max": [
        0.9924191832542419,
        0.994886577129364
      ],
      "min": [
        0.0033449616748839617,
        0.003697219304740429
      ],
      "type": "VEC2"
    },
    {
      "bufferView": 0,
      "byteOffset": 52176,
      "componentType": 5125,
      "count": 3384,
      "type": "SCALAR"
    },
    {
      "bufferView": 2,
      "byteOffset": 190512,
      "componentType": 5126,
      "count": 1644,
      "max": [
        0.2919403314590454,
        0.22448942065238953,
        1.0985515117645264
      ],
      "min": [
        -0.14550603926181793,
        -1.0989084243774414,
        -0.6816483736038208
      ],
      "type": "VEC3"
    },
    {
      "bufferView": 2,
      "byteOffset": 210240,
      "componentType": 5126,
      "count": 1644,
      "max": [
        1.0,
        1.0,
        1.0
      ],
      "min": [
        -1.0,
        -1.0,
        -1.0
      ],
      "type": "VEC3"
    },
    {
      "bufferView": 1,
      "byteOffset": 63504,
      "componentType": 5126,
      "count": 1644,
      "max": [
        0.9998805522918701,
        1.0008236169815063
      ],
      "min": [
        0.0033449616748839617,
        -0.0005746781826019287
      ],
      "type": "VEC2"
    },
    {
      "bufferView": 0,
      "byteOffset": 65712,
      "componentType": 5125,
      "count": 3384,
      "type": "SCALAR"
    },
    {
      "bufferView": 2,
      "byteOffset": 229968,
      "componentType": 5126,
      "count": 1134,
      "max": [
        0.2919403314590454,
        0.2981283366680145,
        1.0985515117645264
      ],
      "min": [
        -0.14550603926181793,
        -1.0252695083618164,
        -0.6816483736038208
      ],
      "type": "VEC3"
    },
    {
      "bufferView": 2,
      "byteOffset": 243576,
      "componentType": 5126,
      "count": 1134,
      "max": [
        1.0,
        1.0,
        1.0
      ],
      "min": [
        -1.0,
        -1.0,
        -1.0
      ],
      "type": "VEC3"
    },
    {
      "bufferView": 1,
      "byteOffset": 76656,
      "componentType": 5126,
      "count": 1134,
      "max": [
        0.8667757511138916,
        1.0
      ],
      "min": [
        0.0,
        0.0
      ],
      "type": "VEC2"
    },
    {
      "bufferView": 0,
      "byteOffset": 79248,
      "componentType": 5125,
      "count": 3384,
      "type": "SCALAR"
    },
    {
      "bufferView": 2,
      "byteOffset": 257184,
      "componentType": 5126,
      "count": 1596,
      "max": [
        0.2919403314590454,
        0.37287208437919617,
        1.0985515117645264
      ],
      "min": [
        -0.14550603926181793,
        -0.9505257606506348,
        -0.6816483736038208
      ],
      "type": "VEC3"
    },
    {
      "bufferView": 2,
      "byteOffset": 276336,
      "componentType": 5126,
      "count": 1596,
      "max": [
        1.0,
        1.0,
        1.0
      ],
      "min": [
        -1.0,
        -1.0,
        -1.0
      ],
      "type": "VEC3"
    },
    {
      "bufferView": 1,
      "byteOffset": 85728,
      "componentType": 5126,
      "count": 1596,
      "max": [
        1.0013253688812256,
        1.0000019073486328
      ],
      "min": [
        0.002428306033834815,
        0.23087060451507568
      ],
      "type": "VEC2"
    },
    {
      "bufferView": 0,
      "byteOffset": 92784,
      "componentType": 5125,
      "count": 3384,
      "type": "SCALAR"
    }
  ],
  "asset": {
    "extras": {
      "author": "RiccardoC. (https://sketchfab.com/MaxterDragon1)",
      "license": "CC-BY-4.0 (http://creativecommons.org/licenses/by/4.0/)",
      "source": "https://sketchfab.com/3d-models/library-08d73e1168504bf2b8706cd838ad16ef",
      "title": "Library"
    },
    "generator": "Sketchfab-12.65.0",
    "version": "2.0"
  },
  "bufferViews": [
    {
      "buffer": 0,
      "byteLength": 106320,
      "name": "floatBufferViews",
      "target": 34963
    },
    {
      "buffer": 0,
      "byteLength": 98496,
      "byteOffset": 106320,
      "byteStride": 8,
      "name": "floatBufferViews",
      "target": 34962
    },
    {
      "buffer": 0,
      "byteLength": 295488,
      "byteOffset": 204816,
      "byteStride": 12,
      "name": "floatBufferViews",
      "target": 34962
    }
  ],
  "buffers": [
    {
      "byteLength": 500304,
      "uri": "scene.bin"
    }
  ],
  "images": [
    {
      "uri": "textures/book.002_baseColor.jpeg"
    },
    {
      "uri": "textures/paper_baseColor.jpeg"
    },
    {
      "uri": "textures/legno.001_baseColor.png"
    },
    {
      "uri": "textures/tappeto_baseColor.jpeg"
    },
    {
      "uri": "textures/book.001_baseColor.jpeg"
    },
    {
      "uri": "textures/book.004_baseColor.jpeg"
    },
    {
      "uri": "textures/book.005_baseColor.jpeg"
    },
    {
      "uri": "textures/book.003_baseColor.jpeg"
    },
    {
      "uri": "textures/book.007_baseColor.jpeg"
    },
    {
      "uri": "textures/book.008_baseColor.jpeg"
    }
  ],
  "materials": [
    {
      "doubleSided": true,
      "name": "book.002",
      "pbrMetallicRoughness": {
        "baseColorTexture": {
          "index": 0
        },
        "metallicFactor": 0.0,
        "roughnessFactor": 0.8211145618000169
      }
    },
    {
      "doubleSided": true,
      "name": "paper",
      "pbrMetallicRoughness": {
        "baseColorTexture": {
          "index": 1
        },
        "metallicFactor": 0.0,
        "roughnessFactor": 0.8211145618000169
      }
    },
    {
      "doubleSided": true,
      "name": "legno.001",
      "pbrMetallicRoughness": {
        "baseColorTexture": {
          "index": 2
        },
        "metallicFactor": 0.0,
        "roughnessFactor": 0.8211145618000169
      }
    },
    {
      "doubleSided": true,
      "name": "tappeto",
      "pbrMetallicRoughness": {
        "baseColorTexture": {
          "index": 3
        },
        "metallicFactor": 0.0,
        "roughnessFactor": 0.8211145618000169
      }
    },
    {
      "doubleSided": true,
      "name": "book.001",
      "pbrMetallicRoughness": {
        "baseColorTexture": {
          "index": 4
        },
        "metallicFactor": 0.0,
        "roughnessFactor": 0.8211145618000169
      }
    },
    {
      "doubleSided": true,
      "name": "book.004",
      "pbrMetallicRoughness": {
        "baseColorTexture": {
          "index": 5
        },
        "metallicFactor": 0.0,
        "roughnessFactor": 0.8211145618000169
      }
    },
    {
      "doubleSided": true,
      "name": "book.005",
      "pbrMetallicRoughness": {
        "baseColorTexture": {
          "index": 6
        },
        "metallicFactor": 0.0,
        "roughnessFactor": 0.8211145618000169
      }
    },
    {
      "doubleSided": true,
      "name": "book.003",
      "pbrMetallicRoughness": {
        "baseColorTexture": {
          "index": 7
        },
        "metallicFactor": 0.0,
        "roughnessFactor": 0.8211145618000169
      }
    },
    {
      "doubleSided": true,
      "name": "book.007",
      "pbrMetallicRoughness": {
        "baseColorTexture": {
          "index": 8
        },
        "metallicFactor": 0.0,
        "roughnessFactor": 0.8211145618000169
      }
    },
    {
      "doubleSided": true,
      "name": "book.008",
      "pbrMetallicRoughness": {
        "baseColorTexture": {
          "index": 9
        },
        "metallicFactor": 0.0,
        "roughnessFactor": 0.8211145618000169
      }
    }
  ],
  "meshes": [
    {
      "name": "Cube.056_book.002_0",
      "primitives": [
        {
          "attributes": {
            "NORMAL": 1,
            "POSITION": 0,
            "TEXCOORD_0": 2
          },
          "indices": 3,
          "material": 0,
          "mode": 4
        }
      ]
    },
    {
      "name": "Cube.056_paper_0",
      "primitives": [
        {
          "attributes": {
            "NORMAL": 5,
            "POSITION": 4,
            "TEXCOORD_0": 6
          },
          "indices": 7,
          "material": 1,
          "mode": 4
        }
      ]
    },
    {
      "name": "Cube.056_legno.001_0",
      "primitives": [
        {
          "attributes": {
            "NORMAL": 9,
            "POSITION": 8,
            "TEXCOORD_0": 10
          },
          "indices": 11,
          "material": 2,
          "mode": 4
        }
      ]
    },
    {
      "name": "Cube.056_tappeto_0",
      "primitives": [
        {
          "attributes": {
            "NORMAL": 13,
            "POSITION": 12,
            "TEXCOORD_0": 14
          },
          "indices": 15,
          "material": 3,
          "mode": 4
        }
      ]
    },
    {
      "name": "Cube.056_book.001_0",
      "primitives": [
        {
          "attributes": {
            "NORMAL": 17,
            "POSITION": 16,
            "TEXCOORD_0": 18
          },
          "indices": 19,
          "material": 4,
          "mode": 4
        }
      ]
    },
    {
      "name": "Cube.056_book.004_0",
      "primitives": [
        {
          "attributes": {
            "NORMAL": 21,
            "POSITION": 20,
            "TEXCOORD_0": 22
          },
          "indices": 23,
          "material": 5,
          "mode": 4
        }
      ]
    },
    {
      "name": "Cube.056_book.005_0",
      "primitives": [
        {
          "attributes": {
            "NORMAL": 25,
            "POSITION": 24,
            "TEXCOORD_0": 26
          },
          "indices": 27,
          "material": 6,
          "mode": 4
        }
      ]
    },
    {
      "name": "Cube.056_book.003_0",
      "primitives": [
        {
          "attributes": {
            "NORMAL": 29,
            "POSITION": 28,
            "TEXCOORD_0": 30
          },
          "indices": 31,
          "material": 7,
          "mode": 4
        }
      ]
    },
    {
      "name": "Cube.056_book.007_0",
      "primitives": [
        {
          "attributes": {
            "NORMAL": 33,
            "POSITION": 32,
            "TEXCOORD_0": 34
          },
          "indices": 35,
          "material": 8,
          "mode": 4
        }
      ]
    },
    {
      "name": "Cube.056_book.008_0",
      "primitives": [
        {
          "attributes": {
            "NORMAL": 37,
            "POSITION": 36,
            "TEXCOORD_0": 38
          },
          "indices": 39,
          "material": 9,
          "mode": 4
        }
      ]
    }
  ],
  "nodes": [
    {
      "children": [
        1
      ],
      "matrix": [
        1.0,
        0.0,
        0.0,
        0.0,
        0.0,
        2.220446049250313e-16,
        -1.0,
        0.0,
        0.0,
        1.0,
        2.220446049250313e-16,
        0.0,
        0.0,
        0.0,
        0.0,
        1.0
      ],
      "name": "Sketchfab_model"
    },
    {
      "children": [
        2
      ],
      "matrix": [
        1.0,
        0.0,
        0.0,
        0.0,
        0.0,
        0.0,
        1.0,
        0.0,
        0.0,
        -1.0,
        0.0,
        0.0,
        0.0,
        0.0,
        0.0,
        1.0
      ],
      "name": "a57d8872cb8c4b9c8ca99ebe12790938.fbx"
    },
    {
      "children": [
        3
      ],
      "name": "RootNode"
    },
    {
      "children": [
        4,
        5,
        6,
        7,
        8,
        9,
        10,
        11,
        12,
        13
      ],
      "matrix": [
        1.0194252026175378e-05,
        0.0,
        -52.356834411620106,
        0.0,
        -52.35683441161942,
        -8.530011044772479e-06,
        -1.0194252031988156e-05,
        0.0,
        -8.53001104186609e-06,
        52.356834411620405,
        -1.6740795761357313e-12,
        0.0,
        1005.8297119140625,
        59.659969329833984,
        10.111008644104004,
        1.0
      ],
      "name": "Cube.056"
    },
    {
      "mesh": 0,
      "name": "Cube.056_book.002_0"
    },
    {
      "mesh": 1,
      "name": "Cube.056_paper_0"
    },
    {
      "mesh": 2,
      "name": "Cube.056_legno.001_0"
    },
    {
      "mesh": 3,
      "name": "Cube.056_tappeto_0"
    },
    {
      "mesh": 4,
      "name": "Cube.056_book.001_0"
    },
    {
      "mesh": 5,
      "name": "Cube.056_book.004_0"
    },
    {
      "mesh": 6,
      "name": "Cube.056_book.005_0"
    },
    {
      "mesh": 7,
      "name": "Cube.056_book.003_0"
    },
    {
      "mesh": 8,
      "name": "Cube.056_book.007_0"
    },
    {
      "mesh": 9,
      "name": "Cube.056_book.008_0"
    }
  ],
  "samplers": [
    {
      "magFilter": 9729,
      "minFilter": 9987,
      "wrapS": 10497,
      "wrapT": 10497
    }
  ],
  "scene": 0,
  "scenes": [
    {
      "name": "Sketchfab_Scene",
      "nodes": [
        0
      ]
    }
  ],
  "textures": [
    {
      "sampler": 0,
      "source": 0
    },
    {
      "sampler": 0,
      "source": 1
    },
    {
      "sampler": 0,
      "source": 2
    },
    {
      "sampler": 0,
      "source": 3
    },
    {
      "sampler": 0,
      "source": 4
    },
    {
      "sampler": 0,
      "source": 5
    },
    {
      "sampler": 0,
      "source": 6
    },
    {
      "sampler": 0,
      "source": 7
    },
    {
      "sampler": 0,
      "source": 8
    },
    {
      "sampler": 0,
      "source": 9
    }
  ]
}
